<?xml version="1.0" encoding="UTF-8"?> <!-- Generator: Adobe Illustrator 24.3.0, SVG Export Plug-In . SVG Version: 6.00 Build 0) --> <svg xmlns="http://www.w3.org/2000/svg" xmlns:xlink="http://www.w3.org/1999/xlink" version="1.1" id="Layer_1" x="0px" y="0px" viewBox="0 0 906.4 121.8" style="enable-background:new 0 0 906.4 121.8;" xml:space="preserve"> <style type="text/css"> .st0{fill:#E67525;} </style> <g> <g> <path class="st0" d="M91.8,107.5c-4.8,5.2-12,9.9-21.2,9.9c-14.8,0-24.7-9.5-24.7-25.1c0-16.1,12.1-25.7,21.3-25.7 c7,0,10.1,3.9,10.8,4.8l1.6-3.9h11v19.9H78c-0.2-4.5-2.4-8.8-7.4-8.8c-5,0-8.3,6.2-8.3,13.8c0,6.9,3.6,13.1,10.2,13.1 c5.9,0,10.5-6.2,11.1-6.9L91.8,107.5z"></path> <path class="st0" d="M95.4,84.2c2.8-1.7,8.8-5,15.2-5c8.4,0,18.9,3.1,18.9,14.4v13.6h4.2v8.9h-15l-1.7-3.1 c-2.6,3.6-6.9,4.5-9.4,4.5c-6.6,0-13.8-3.6-13.8-11.7c0-7.9,6.6-12.9,14.5-12.9c4.1,0,6.6,2,6.9,2.4V93c0-3.1-2.9-3.9-6.6-3.9 c-4.1,0-7.8,1.7-10.4,3.2L95.4,84.2z M115.4,103.5c-0.2-0.3-1.2-2-4.1-2c-2.8,0-4.1,1.5-4.1,3.7c0,2,1.6,3.3,3.7,3.3 s3.8-1.3,4.5-2.3V103.5z"></path> <path class="st0" d="M136.6,116.2v-9.2h3.1V90.4h-3v-9.1h13.1l2.1,4.5c1.8-3.4,3.6-6.2,10.8-6.2v12.6c-6.3,0-9.9,1.6-9.9,7.8v7.2 h3.5v9.2H136.6z"></path> <path class="st0" d="M200.6,111.4c-5.2,4.5-10.8,6.1-18,6.1c-8.7,0-18.5-5.5-18.5-18.9c0-11.5,8.2-18.2,18.8-18.2 c8.3,0,14.7,4.3,16.7,10.1c0.8,2.4,1.6,7.8,0.1,11.8h-22c0.4,1.9,1.3,5.7,7.2,5.7c2.4,0,6-0.2,9.8-3.4L200.6,111.4z M188.5,95.3 c-0.1-2.7-0.7-5.6-5.2-5.6c-4.3,0-5.2,3.8-5.4,5.6H188.5z"></path> <path class="st0" d="M238.5,111.4c-5.2,4.5-10.8,6.1-18,6.1c-8.7,0-18.5-5.5-18.5-18.9c0-11.5,8.2-18.2,18.8-18.2 c8.3,0,14.7,4.3,16.7,10.1c0.8,2.4,1.6,7.8,0.1,11.8h-22c0.4,1.9,1.3,5.7,7.2,5.7c2.4,0,6-0.2,9.8-3.4L238.5,111.4z M226.4,95.3 c-0.1-2.7-0.7-5.6-5.2-5.6c-4.3,0-5.2,3.8-5.4,5.6H226.4z"></path> <path class="st0" d="M241.3,116.2v-9.2h3.1V90.4h-3v-9.1h13.1l2.1,4.5c1.8-3.4,3.6-6.2,10.8-6.2v12.6c-6.3,0-9.9,1.6-9.9,7.8v7.2 h3.5v9.2H241.3z"></path> <path class="st0" d="M269.5,103.6h9.4c0,3.7,5.3,4.7,7.4,4.7c1.4,0,3.1-0.4,3.1-2.4c0-2.1-5.2-2.4-10.3-4.2 c-4.8-1.7-9.3-4.6-9.3-11.2c0-7.1,7.3-10.1,12.3-10.1c4.8,0,8.9,2.4,10.4,5.5l0.6-4.6h8.6v12.6h-9.1c0-2.9-3.6-5.3-7.1-5.3 c-1.5,0-2.7,0.8-2.7,2.5c0,2,4.1,2.8,8.6,4.3c5.3,1.8,11.3,3.8,11.3,11.2c0,6.6-6.2,10.5-13,10.5c-5,0-9-2.4-10.7-5.1l-0.6,4.3 h-8.7V103.6z"></path> <path class="st0" d="M323.2,116.2v-9.2h2.9V90.4h-2.9v-9.1h16.2v25.8h3.4v9.2H323.2z M332.7,63.9c4.8,0,7.7,3.9,7.7,7.1 c0,3.8-2.7,7.1-7.7,7.1c-4.4,0-7.6-3.7-7.6-7.1C325.2,67.8,327.8,63.9,332.7,63.9z"></path> <path class="st0" d="M346.3,116.2v-9.2h2.9V90.4h-2.9v-9.1h14.9l1.6,4.3c2.4-3.3,5.6-5.6,10-5.6c10.8,0,12.7,8,12.7,15.4v11.7h3.3 v9.2h-17.6V97.1c0-2.4,0.2-6.5-3.9-6.5c-3.6,0-4.4,3.5-4.4,6.5v9.9h5v9.2H346.3z"></path> <path class="st0" d="M454.2,107.5c-4.8,5.2-12,9.9-21.2,9.9c-14.8,0-24.7-9.5-24.7-25.1c0-16.1,12.1-25.7,21.3-25.7 c7,0,10.1,3.9,10.8,4.8l1.6-3.9h11v19.9h-12.5c-0.2-4.5-2.4-8.8-7.4-8.8c-5,0-8.3,6.2-8.3,13.8c0,6.9,3.6,13.1,10.2,13.1 c5.9,0,10.5-6.2,11.1-6.9L454.2,107.5z"></path> <path class="st0" d="M456,98.6c0.1-11.7,9.5-18.2,19.2-18.2c11,0.1,19.2,6.8,19.4,18.5c0.1,11.6-8.5,18.2-19.1,18.2 C465.5,117.1,455.8,111,456,98.6z M480.2,98.9c0-5.2-1.8-9.3-5.1-9.4c-2.7,0-4.8,4.1-4.8,9.2c0,5.7,2.2,9.5,5.2,9.5 C478.5,108.2,480.2,104.1,480.2,98.9z"></path> <path class="st0" d="M497.1,116.2v-9.2h2.9V90.4h-2.9v-9.1H512l1.6,4.3c2.4-3.3,5.6-5.6,10-5.6c10.8,0,12.7,8,12.7,15.4v11.7h3.3 v9.2h-17.6V97.1c0-2.4,0.2-6.5-3.9-6.5c-3.6,0-4.4,3.5-4.4,6.5v9.9h5v9.2H497.1z"></path> <path class="st0" d="M541.6,103.6h9.4c0,3.7,5.3,4.7,7.4,4.7c1.4,0,3.1-0.4,3.1-2.4c0-2.1-5.2-2.4-10.3-4.2 c-4.8-1.7-9.3-4.6-9.3-11.2c0-7.1,7.3-10.1,12.3-10.1c4.8,0,8.9,2.4,10.4,5.5l0.6-4.6h8.6v12.6h-9.1c0-2.9-3.6-5.3-7.1-5.3 c-1.5,0-2.7,0.8-2.7,2.5c0,2,4.1,2.8,8.6,4.3c5.3,1.8,11.3,3.8,11.3,11.2c0,6.6-6.2,10.5-13,10.5c-5,0-9-2.4-10.7-5.1l-0.6,4.3 h-8.7V103.6z"></path> <path class="st0" d="M612.9,111.4c-5.2,4.5-10.8,6.1-18,6.1c-8.7,0-18.5-5.5-18.5-18.9c0-11.5,8.2-18.2,18.8-18.2 c8.3,0,14.7,4.3,16.7,10.1c0.8,2.4,1.6,7.8,0.1,11.8h-22c0.4,1.9,1.3,5.7,7.2,5.7c2.4,0,6-0.2,9.8-3.4L612.9,111.4z M600.8,95.3 c-0.1-2.7-0.7-5.6-5.2-5.6c-4.3,0-5.2,3.8-5.4,5.6H600.8z"></path> <path class="st0" d="M615.7,116.2v-9.2h3.1V90.4h-3v-9.1h13.1l2.1,4.5c1.8-3.4,3.6-6.2,10.8-6.2v12.6c-6.3,0-9.9,1.6-9.9,7.8v7.2 h3.5v9.2H615.7z"></path> <path class="st0" d="M666,104.9c0.1-1.5,0.9-5,2.1-7.7l3.4-7.1h-3.7v-8.9h18v8.9h-3.6l-12.1,26.1h-10.8l-13-26.1h-3.3v-8.9h21.3 v8.9h-3.5l3.2,7.4c0.9,2.7,1.7,5.9,1.8,7.3H666z"></path> <path class="st0" d="M688.3,84.2c2.8-1.7,8.8-5,15.2-5c8.4,0,18.9,3.1,18.9,14.4v13.6h4.2v8.9h-15l-1.7-3.1 c-2.6,3.6-6.9,4.5-9.4,4.5c-6.6,0-13.8-3.6-13.8-11.7c0-7.9,6.6-12.9,14.5-12.9c4.1,0,6.6,2,6.9,2.4V93c0-3.1-2.9-3.9-6.6-3.9 c-4.1,0-7.8,1.7-10.4,3.2L688.3,84.2z M708.3,103.5c-0.2-0.3-1.2-2-4.1-2c-2.8,0-4.1,1.5-4.1,3.7c0,2,1.6,3.3,3.7,3.3 c2.1,0,3.8-1.3,4.5-2.3V103.5z"></path> <path class="st0" d="M732.6,81.3v-6.4l12.9-4.1v10.6h6.6v9.1h-6.6v12.4c0,2.4-0.5,5.6,2.2,5.6c0.9,0,3.1-0.6,4.4-1.2v8.9 c-2.1,0.8-6.9,1.3-8.5,1.3c-10.5,0-10.8-5.7-11-14.7V90.4h-3.8v-9.1H732.6z"></path> <path class="st0" d="M754.9,116.2v-9.2h2.9V90.4h-2.9v-9.1h16.2v25.8h3.4v9.2H754.9z M764.4,63.9c4.8,0,7.7,3.9,7.7,7.1 c0,3.8-2.7,7.1-7.7,7.1c-4.4,0-7.6-3.7-7.6-7.1C756.8,67.8,759.5,63.9,764.4,63.9z"></path> <path class="st0" d="M776.9,98.6c0.1-11.7,9.5-18.2,19.2-18.2c11,0.1,19.2,6.8,19.4,18.5c0.1,11.6-8.5,18.2-19.1,18.2 C786.5,117.1,776.8,111,776.9,98.6z M801.2,98.9c0-5.2-1.8-9.3-5.1-9.4c-2.7,0-4.8,4.1-4.8,9.2c0,5.7,2.2,9.5,5.2,9.5 C799.5,108.2,801.2,104.1,801.2,98.9z"></path> <path class="st0" d="M818.1,116.2v-9.2h2.9V90.4h-2.9v-9.1h14.9l1.6,4.3c2.4-3.3,5.6-5.6,10-5.6c10.8,0,12.7,8,12.7,15.4v11.7h3.3 v9.2h-17.6V97.1c0-2.4,0.2-6.5-3.9-6.5c-3.6,0-4.4,3.5-4.4,6.5v9.9h5v9.2H818.1z"></path> </g> <g> <path d="M145.7,45.2C142,49.1,137,51,130.6,51h-13.3V4.8h15.3c6.2,0,10.9,2.1,14.2,6.3c3.1,4,4.7,9.6,4.7,16.9 C151.6,35.5,149.6,41.2,145.7,45.2z M144.2,13.9c-2.5-3.2-6.4-4.9-11.6-4.9H121v37.9h9.8c5.4,0,9.7-1.6,12.7-4.8 c3-3.2,4.5-7.9,4.5-14.1C148,21.8,146.7,17.1,144.2,13.9z"></path> <path d="M159.1,12.5c-0.8,0-1.3-0.6-1.7-1.7V5.9c0.4-1.1,1-1.7,1.7-1.7c0.6,0,1.2,0.5,1.9,1.5V11C160.4,12,159.7,12.5,159.1,12.5z M157.4,51V17h3.6V51H157.4z"></path> <path d="M180.6,51h-3l-13.4-33.2h4.2L179,45.1l9.9-27.3h3.9L180.6,51z"></path> <path d="M198,36c0.5,7.7,4,11.6,10.6,11.6c5.1,0,8.5-2.6,10.1-7.8h3.7c-1.2,4.7-3.1,7.9-5.8,9.6c-2.3,1.5-5.1,2.3-8.2,2.3 c-4.6,0-8.2-1.6-10.6-4.8c-2.3-3-3.4-7.2-3.4-12.5c0-5,1.3-9.2,3.8-12.5c2.6-3.3,6-5,10.5-5c4.3,0,7.8,1.5,10.4,4.4 c2.6,2.9,3.9,6.9,3.9,11.9V36H198z M216.3,24.5c-1.9-2.3-4.4-3.4-7.6-3.4c-2.9,0-5.3,0.9-7.2,2.8s-3.1,4.6-3.5,8.1h21 C218.8,29,217.9,26.5,216.3,24.5z"></path> <path d="M233.6,26.2c-1.5,2.9-2.3,6.7-2.3,11.4V51h-3.6V17.7h3.6v4.6c2.6-3.5,6.4-5.3,11.7-5.3v4.2 C238.5,21.1,235.4,22.8,233.6,26.2z"></path> <path d="M267.1,50c-1.9,1.3-4.4,1.9-7.5,1.9c-8.4,0-12.6-4.7-12.6-14.2h3.7c0,3.6,0.7,6.2,2.1,7.8c1.4,1.6,3.7,2.3,6.8,2.3 c2.2,0,3.9-0.4,5.3-1.2c1.6-1,2.4-2.5,2.4-4.4c0-2.4-1.7-4.1-5.2-5.1c-0.3,0-2.1-0.4-5.5-1c-5.7-1-8.5-4.1-8.5-9.1 c0-3.3,1.1-5.8,3.4-7.6c2-1.5,4.3-2.3,7.1-2.3c8.1,0,12.2,4.2,12.2,12.7h-3.8c0-3.1-0.6-5.3-1.9-6.6c-1.3-1.3-3.4-2-6.2-2 c-1.9,0-3.6,0.5-4.9,1.4c-1.5,1.1-2.2,2.6-2.2,4.4c0,2.4,1.7,3.9,5,4.7c0.9,0.2,2.9,0.6,5.8,1.2c5.6,1.2,8.4,4.3,8.4,9.3 C271,45.6,269.7,48.2,267.1,50z"></path> <path d="M278.9,12.5c-0.8,0-1.3-0.6-1.7-1.7V5.9c0.4-1.1,1-1.7,1.7-1.7c0.6,0,1.2,0.5,1.9,1.5V11C280.2,12,279.5,12.5,278.9,12.5z M277.2,51V17h3.6V51H277.2z"></path> <path d="M294.4,23.1V51h-3.6V23.1h-5.5v-4.2h5.5V9.2h3.6v9.7h5.5v4.2H294.4z"></path> <path d="M315.8,63.2c-3.3,0-6.1-0.8-8.2-2.4c-2.7-2-4.1-5.5-4.3-10.4h3.6c0.2,3,1,5.2,2.4,6.6c1.4,1.3,3.6,2,6.6,2 c6.5,0,9.8-3.3,9.8-9.9v-1.1c-2.3,3-5.4,4.4-9.4,4.4c-3.5,0-6.4-1.1-8.4-3.2c-2.2-2.3-3.3-5.5-3.3-9.6V17.8h3.6v21.9 c0,5.8,2.7,8.7,8.1,8.7c3.1,0,5.5-1.1,7.1-3.4c1.5-2.1,2.3-5,2.3-8.9V17.8h3.6v31.5C329.4,58.6,324.9,63.2,315.8,63.2z"></path> <path d="M368.5,51.5c-7.6,0-11.8-4.2-12.5-12.7h3.7c0.2,3,1,5.2,2.3,6.5c1.3,1.3,3.4,2,6.3,2c3.3,0,5.6-0.8,6.9-2.3 c1.3-1.5,2-4.2,2-8V4.8h3.6v32.6C380.8,46.8,376.7,51.5,368.5,51.5z"></path> <path d="M411.2,46.9c-2.6,3.2-6.2,4.8-10.7,4.8c-4.5,0-8-1.6-10.6-4.8c-2.6-3.2-3.9-7.4-3.9-12.5c0-5.1,1.3-9.3,3.9-12.6 c2.6-3.2,6.2-4.9,10.7-4.9c4.5,0,8,1.6,10.7,4.9c2.6,3.2,3.9,7.4,3.9,12.6C415.2,39.5,413.9,43.7,411.2,46.9z M408.7,24.8 c-1.9-2.4-4.6-3.6-8.1-3.6c-3.4,0-6.1,1.2-8.1,3.7c-1.9,2.4-2.9,5.6-2.9,9.6c0,3.9,1,7.1,2.9,9.6c2,2.4,4.6,3.7,8,3.7 c3.4,0,6.1-1.2,8.1-3.7c2-2.4,3-5.6,3-9.6C411.6,30.4,410.6,27.2,408.7,24.8z"></path> <path d="M421.9,12.5c-0.8,0-1.3-0.6-1.7-1.7V5.9c0.4-1.1,1-1.7,1.7-1.7c0.6,0,1.2,0.5,1.9,1.5V11C423.1,12,422.5,12.5,421.9,12.5z M420.2,51V17h3.6V51H420.2z"></path> <path d="M451.5,51V29.5c0-2.7-0.7-4.8-2.1-6.2c-1.4-1.4-3.4-2.1-5.9-2.1c-3,0-5.3,1-7,3.1c-1.7,2.1-2.5,4.8-2.5,8.2V51h-3.6V17.7 h3.6v3.5c2.2-2.9,5.4-4.3,9.4-4.3c3.3,0,6,1,8.2,2.9c2.4,2.1,3.6,5.1,3.6,9V51H451.5z"></path> <path d="M468.9,23.1V51h-3.6V23.1h-5.5v-4.2h5.5V9.2h3.6v9.7h5.5v4.2H468.9z"></path> <path d="M518.1,51h-2.9L498,4.8h3.9l14.8,39.7L531,4.8h3.8L518.1,51z"></path> <path d="M540.2,36c0.5,7.7,4,11.6,10.6,11.6c5.1,0,8.5-2.6,10.1-7.8h3.7c-1.2,4.7-3.1,7.9-5.8,9.6c-2.3,1.5-5.1,2.3-8.2,2.3 c-4.6,0-8.2-1.6-10.6-4.8c-2.3-3-3.4-7.2-3.4-12.5c0-5,1.3-9.2,3.8-12.5c2.6-3.3,6-5,10.5-5c4.3,0,7.8,1.5,10.4,4.4 c2.6,2.9,3.9,6.9,3.9,11.9V36H540.2z M558.5,24.5c-1.9-2.3-4.4-3.4-7.6-3.4c-2.9,0-5.3,0.9-7.2,2.8c-1.9,1.9-3.1,4.6-3.5,8.1h21 C561,29,560.1,26.5,558.5,24.5z"></path> <path d="M591,51V29.5c0-2.7-0.7-4.8-2.1-6.2c-1.4-1.4-3.4-2.1-5.9-2.1c-3,0-5.3,1-7,3.1c-1.7,2.1-2.5,4.8-2.5,8.2V51h-3.6V17.7 h3.6v3.5c2.2-2.9,5.4-4.3,9.4-4.3c3.3,0,6,1,8.2,2.9c2.4,2.1,3.6,5.1,3.6,9V51H591z"></path> <path d="M608.4,23.1V51h-3.6V23.1h-5.5v-4.2h5.5V9.2h3.6v9.7h5.5v4.2H608.4z"></path> <path d="M639.7,51.1v-3.6c-2.3,2.9-5.4,4.3-9.4,4.3c-3.5,0-6.4-1-8.4-3.1c-2.2-2.2-3.3-5.4-3.3-9.4V17.8h3.6v21.3 c0,5.7,2.7,8.5,8.1,8.5c3.1,0,5.5-1.1,7.1-3.3c1.5-2,2.3-4.9,2.3-8.6V17.8h3.6v33.3H639.7z"></path> <path d="M655.9,26.2c-1.5,2.9-2.3,6.7-2.3,11.4V51H650V17.7h3.6v4.6c2.6-3.5,6.4-5.3,11.7-5.3v4.2 C660.9,21.1,657.8,22.8,655.9,26.2z"></path> <path d="M672,36c0.5,7.7,4,11.6,10.6,11.6c5.1,0,8.5-2.6,10.1-7.8h3.7c-1.2,4.7-3.1,7.9-5.8,9.6c-2.3,1.5-5.1,2.3-8.2,2.3 c-4.6,0-8.2-1.6-10.6-4.8c-2.3-3-3.4-7.2-3.4-12.5c0-5,1.3-9.2,3.8-12.5c2.6-3.3,6-5,10.5-5c4.3,0,7.8,1.5,10.4,4.4 c2.6,2.9,3.9,6.9,3.9,11.9V36H672z M690.3,24.5c-1.9-2.3-4.4-3.4-7.6-3.4c-2.9,0-5.3,0.9-7.2,2.8c-1.9,1.9-3.1,4.6-3.5,8.1h21 C692.9,29,692,26.5,690.3,24.5z"></path> <path d="M729.9,18.8v1.6h6.1v4.2h-6.1v26.6h-3.6V24.5h-3.9v-4.2h3.9v-1.6c0-8.7,4.9-13.1,14.7-13.1v4.2c-4,0-6.9,0.8-8.7,2.3 C730.7,13.5,729.9,15.7,729.9,18.8z"></path> <path d="M764.9,46.9c-2.6,3.2-6.2,4.8-10.7,4.8c-4.5,0-8-1.6-10.6-4.8c-2.6-3.2-3.9-7.4-3.9-12.5c0-5.1,1.3-9.3,3.9-12.6 c2.6-3.2,6.2-4.9,10.7-4.9c4.5,0,8,1.6,10.7,4.9c2.6,3.2,3.9,7.4,3.9,12.6C768.8,39.5,767.5,43.7,764.9,46.9z M762.3,24.8 c-1.9-2.4-4.6-3.6-8.1-3.6c-3.4,0-6.1,1.2-8.1,3.7c-1.9,2.4-2.9,5.6-2.9,9.6c0,3.9,1,7.1,2.9,9.6c2,2.4,4.6,3.7,8,3.7 c3.4,0,6.1-1.2,8.1-3.7c2-2.4,3-5.6,3-9.6C765.2,30.4,764.2,27.2,762.3,24.8z"></path> <path d="M779.7,26.2c-1.5,2.9-2.3,6.7-2.3,11.4V51h-3.6V17.7h3.6v4.6c2.6-3.5,6.4-5.3,11.7-5.3v4.2 C784.7,21.1,781.6,22.8,779.7,26.2z"></path> </g> </g> </svg> 